<svg width="50" height="50" viewBox="0 0 50 50" fill="none" xmlns="http://www.w3.org/2000/svg">
<path d="M8.98047 23.0273V33H6.8125V20.3203H8.86328L8.98047 23.0273ZM8.46484 26.1797L7.5625 26.1445C7.57031 25.2773 7.69922 24.4766 7.94922 23.7422C8.19922 23 8.55078 22.3555 9.00391 21.8086C9.45703 21.2617 9.99609 20.8398 10.6211 20.543C11.2539 20.2383 11.9531 20.0859 12.7188 20.0859C13.3438 20.0859 13.9062 20.1719 14.4062 20.3438C14.9062 20.5078 15.332 20.7734 15.6836 21.1406C16.043 21.5078 16.3164 21.9844 16.5039 22.5703C16.6914 23.1484 16.7852 23.8555 16.7852 24.6914V33H14.6055V24.668C14.6055 24.0039 14.5078 23.4727 14.3125 23.0742C14.1172 22.668 13.832 22.375 13.457 22.1953C13.082 22.0078 12.6211 21.9141 12.0742 21.9141C11.5352 21.9141 11.043 22.0273 10.5977 22.2539C10.1602 22.4805 9.78125 22.793 9.46094 23.1914C9.14844 23.5898 8.90234 24.0469 8.72266 24.5625C8.55078 25.0703 8.46484 25.6094 8.46484 26.1797ZM25.3398 33.2344C24.457 33.2344 23.6562 33.0859 22.9375 32.7891C22.2266 32.4844 21.6133 32.0586 21.0977 31.5117C20.5898 30.9648 20.1992 30.3164 19.9258 29.5664C19.6523 28.8164 19.5156 27.9961 19.5156 27.1055V26.6133C19.5156 25.582 19.668 24.6641 19.9727 23.8594C20.2773 23.0469 20.6914 22.3594 21.2148 21.7969C21.7383 21.2344 22.332 20.8086 22.9961 20.5195C23.6602 20.2305 24.3477 20.0859 25.0586 20.0859C25.9648 20.0859 26.7461 20.2422 27.4023 20.5547C28.0664 20.8672 28.6094 21.3047 29.0312 21.8672C29.4531 22.4219 29.7656 23.0781 29.9688 23.8359C30.1719 24.5859 30.2734 25.4062 30.2734 26.2969V27.2695H20.8047V25.5H28.1055V25.3359C28.0742 24.7734 27.957 24.2266 27.7539 23.6953C27.5586 23.1641 27.2461 22.7266 26.8164 22.3828C26.3867 22.0391 25.8008 21.8672 25.0586 21.8672C24.5664 21.8672 24.1133 21.9727 23.6992 22.1836C23.2852 22.3867 22.9297 22.6914 22.6328 23.0977C22.3359 23.5039 22.1055 24 21.9414 24.5859C21.7773 25.1719 21.6953 25.8477 21.6953 26.6133V27.1055C21.6953 27.707 21.7773 28.2734 21.9414 28.8047C22.1133 29.3281 22.3594 29.7891 22.6797 30.1875C23.0078 30.5859 23.4023 30.8984 23.8633 31.125C24.332 31.3516 24.8633 31.4648 25.457 31.4648C26.2227 31.4648 26.8711 31.3086 27.4023 30.9961C27.9336 30.6836 28.3984 30.2656 28.7969 29.7422L30.1094 30.7852C29.8359 31.1992 29.4883 31.5938 29.0664 31.9688C28.6445 32.3438 28.125 32.6484 27.5078 32.8828C26.8984 33.1172 26.1758 33.2344 25.3398 33.2344ZM32.2305 26.8008V26.5312C32.2305 25.6172 32.3633 24.7695 32.6289 23.9883C32.8945 23.1992 33.2773 22.5156 33.7773 21.9375C34.2773 21.3516 34.8828 20.8984 35.5938 20.5781C36.3047 20.25 37.1016 20.0859 37.9844 20.0859C38.875 20.0859 39.6758 20.25 40.3867 20.5781C41.1055 20.8984 41.7148 21.3516 42.2148 21.9375C42.7227 22.5156 43.1094 23.1992 43.375 23.9883C43.6406 24.7695 43.7734 25.6172 43.7734 26.5312V26.8008C43.7734 27.7148 43.6406 28.5625 43.375 29.3438C43.1094 30.125 42.7227 30.8086 42.2148 31.3945C41.7148 31.9727 41.1094 32.4258 40.3984 32.7539C39.6953 33.0742 38.8984 33.2344 38.0078 33.2344C37.1172 33.2344 36.3164 33.0742 35.6055 32.7539C34.8945 32.4258 34.2852 31.9727 33.7773 31.3945C33.2773 30.8086 32.8945 30.125 32.6289 29.3438C32.3633 28.5625 32.2305 27.7148 32.2305 26.8008ZM34.3984 26.5312V26.8008C34.3984 27.4336 34.4727 28.0312 34.6211 28.5938C34.7695 29.1484 34.9922 29.6406 35.2891 30.0703C35.5938 30.5 35.9727 30.8398 36.4258 31.0898C36.8789 31.332 37.4062 31.4531 38.0078 31.4531C38.6016 31.4531 39.1211 31.332 39.5664 31.0898C40.0195 30.8398 40.3945 30.5 40.6914 30.0703C40.9883 29.6406 41.2109 29.1484 41.3594 28.5938C41.5156 28.0312 41.5938 27.4336 41.5938 26.8008V26.5312C41.5938 25.9062 41.5156 25.3164 41.3594 24.7617C41.2109 24.1992 40.9844 23.7031 40.6797 23.2734C40.3828 22.8359 40.0078 22.4922 39.5547 22.2422C39.1094 21.9922 38.5859 21.8672 37.9844 21.8672C37.3906 21.8672 36.8672 21.9922 36.4141 22.2422C35.9688 22.4922 35.5938 22.8359 35.2891 23.2734C34.9922 23.7031 34.7695 24.1992 34.6211 24.7617C34.4727 25.3164 34.3984 25.9062 34.3984 26.5312Z" fill="#008B8B"/>
</svg>
